<svg xmlns="http://www.w3.org/2000/svg" viewBox="0 0 307.16 316.54">
  <defs>
    <style>
      .cls-1 {
        fill: #fff;
      }
    </style>
  </defs>
  <title>calendar-picto-white</title>
  <g id="Calque_2" data-name="Calque 2">
    <g id="Calque_2-2" data-name="Calque 2">
      <path id="Tracé_3" data-name="Tracé 3" class="cls-1" d="M88.79,90.11h0a20.15,20.15,0,0,1-20-20V20a20.16,20.16,0,0,1,20-20h0a20.17,20.17,0,0,1,20,20V70.09A20.16,20.16,0,0,1,88.79,90.11ZM239,70.09V20a20.17,20.17,0,0,0-20-20h0a20.16,20.16,0,0,0-20,20V70.09a20.15,20.15,0,0,0,20,20h0a20.16,20.16,0,0,0,20-20Zm68.2,13.07V278.43a38.22,38.22,0,0,1-38.11,38.11H38.11A38.21,38.21,0,0,1,0,278.44V83.17a38.21,38.21,0,0,1,38.11-38.1H59.38v25a29.41,29.41,0,0,0,58.81,0v-25h71.33v25a29.41,29.41,0,0,0,58.81,0v-25h20.72a38.2,38.2,0,0,1,38.09,38.1Zm-23.52,48.17H23.52V280.48a11.81,11.81,0,0,0,4.32,8.89,15.83,15.83,0,0,0,10.32,3.71H269.1a15.83,15.83,0,0,0,10.32-3.71,11.81,11.81,0,0,0,4.32-8.89Zm-44.78,14.42-1-.94a19.53,19.53,0,0,0-27.55,0l-78,85.69L96.87,195A20.18,20.18,0,0,0,68.35,195l0,.05h0a20.18,20.18,0,0,0,0,28.52l0,0,49.64,49.63a19.33,19.33,0,0,0,2.6,2.19,19.55,19.55,0,0,0,25.58-1.68l92.65-100.42a19.53,19.53,0,0,0,.14-27.55Z"/>
    </g>
  </g>
</svg>
