<svg xmlns="http://www.w3.org/2000/svg" viewBox="0 0 138.76 29.07"><defs><style>.cls-1{fill:#000e17;}.cls-2{fill:#ed6e00;}</style></defs><title>Fichier 1</title><g id="Calque_2" data-name="Calque 2"><g id="Calque_1-2" data-name="Calque 1"><path class="cls-1" d="M87.76,5.4A3.08,3.08,0,0,1,90,4.49h14.63V0H90a7.29,7.29,0,0,0-3,.61,7.56,7.56,0,0,0-2.4,1.65A7.91,7.91,0,0,0,83,4.68a7.38,7.38,0,0,0-.59,3V9A7.61,7.61,0,0,0,83,11.89a7.38,7.38,0,0,0,1.61,2.43A7.41,7.41,0,0,0,83,16.73a7.5,7.5,0,0,0-.57,2.92V21a7.47,7.47,0,0,0,.59,3,7.53,7.53,0,0,0,4,4,7.4,7.4,0,0,0,3,.59h14.63V24.15H90A3.18,3.18,0,0,1,86.83,21V19.65a3,3,0,0,1,.93-2.19A3.07,3.07,0,0,1,90,16.55h6.64V12.06H90a3.09,3.09,0,0,1-2.23-.9A2.93,2.93,0,0,1,86.83,9V7.64a3,3,0,0,1,.93-2.24"/><path class="cls-1" d="M22.24.41V4.84H8.66a4,4,0,0,0-3,1.25,4.15,4.15,0,0,0-1.22,3V20.3a4.15,4.15,0,0,0,4.2,4.19H22.24V29H8.66a8.22,8.22,0,0,1-3.38-.7,9.08,9.08,0,0,1-2.74-1.86A8.72,8.72,0,0,1,.68,23.69,8.4,8.4,0,0,1,0,20.3V9.1A8.39,8.39,0,0,1,.68,5.71,9.12,9.12,0,0,1,2.54,2.94,8.3,8.3,0,0,1,5.28,1.08,8.57,8.57,0,0,1,8.66.41Z"/><rect class="cls-1" x="29.77" y="0.59" width="4.48" height="28.48"/><path class="cls-1" d="M66.92.53a9,9,0,0,1,3.28.59,8.68,8.68,0,0,1,2.66,1.62,7.85,7.85,0,0,1,1.81,2.41,6.71,6.71,0,0,1,.67,3V28.65H70.92V8.12a2.77,2.77,0,0,0-1.18-2.23,4.41,4.41,0,0,0-2.81-.93H65.37a4.38,4.38,0,0,0-2.83.93,2.78,2.78,0,0,0-1.16,2.23H56.9a2.79,2.79,0,0,0-1.16-2.23,4.38,4.38,0,0,0-2.83-.93H51.34a4.4,4.4,0,0,0-2.81.93,2.77,2.77,0,0,0-1.18,2.23V28.65H42.87V8.12a6.79,6.79,0,0,1,.66-3,7.57,7.57,0,0,1,1.81-2.41A8.73,8.73,0,0,1,48,1.12,9.15,9.15,0,0,1,51.34.53H52.9a8.88,8.88,0,0,1,3.45.66A8.77,8.77,0,0,1,59.12,3,8.39,8.39,0,0,1,61.9,1.19,9,9,0,0,1,65.37.53Z"/><path class="cls-1" d="M136.53.09V4.51H117.84a3.12,3.12,0,0,0-3.13,3.14V9a3,3,0,0,0,.92,2.19,3,3,0,0,0,2.22.91h13.31a7.44,7.44,0,0,1,3,.59,7.89,7.89,0,0,1,2.43,1.62,7.51,7.51,0,0,1,1.64,2.41,7.42,7.42,0,0,1,.59,2.95V21a7.48,7.48,0,0,1-2.23,5.35A7.84,7.84,0,0,1,134.1,28a7.4,7.4,0,0,1-3,.59H112.5V24.17h18.65a3,3,0,0,0,2.24-.93,3.08,3.08,0,0,0,.89-2.21V19.67a3.08,3.08,0,0,0-3.13-3.1H117.84a7.41,7.41,0,0,1-5.36-2.24,7.89,7.89,0,0,1-1.61-2.41A7.24,7.24,0,0,1,110.27,9V7.66a7.4,7.4,0,0,1,.59-2.95,7.51,7.51,0,0,1,4-4,7.4,7.4,0,0,1,3-.59Z"/><path class="cls-2" d="M61.65,15a4.21,4.21,0,1,1-5.88.82A4.22,4.22,0,0,1,61.65,15"/></g></g></svg>