<svg id="cimes-logo-blanc" xmlns="http://www.w3.org/2000/svg" width="193.52" height="40.525" viewBox="0 0 193.52 40.525">
  <path id="Tracé_1" data-name="Tracé 1" d="M89.868,7.528a4.294,4.294,0,0,1,3.123-1.269h20.395V0H92.991a10.162,10.162,0,0,0-4.182.85,10.539,10.539,0,0,0-3.346,2.3,11.027,11.027,0,0,0-2.23,3.374,10.288,10.288,0,0,0-.822,4.182v1.84a10.608,10.608,0,0,0,.822,4.029,10.288,10.288,0,0,0,2.244,3.387,10.33,10.33,0,0,0-2.244,3.36,10.455,10.455,0,0,0-.795,4.071v1.882A10.468,10.468,0,0,0,93.019,39.855h20.395V33.666H92.991a4.433,4.433,0,0,1-4.419-4.391V27.393a4.182,4.182,0,0,1,1.3-3.053,4.28,4.28,0,0,1,3.123-1.269h9.256V16.812H92.991a4.308,4.308,0,0,1-3.109-1.255,4.084,4.084,0,0,1-1.31-3.011v-1.9a4.182,4.182,0,0,1,1.3-3.123" transform="translate(32.472 0)" fill="#fff"/>
  <path id="Tracé_2" data-name="Tracé 2" d="M31,.41V6.586H12.072A5.576,5.576,0,0,0,7.89,8.328a5.785,5.785,0,0,0-1.7,4.182V28.137a5.785,5.785,0,0,0,5.855,5.841H31v6.287H12.072a11.459,11.459,0,0,1-4.712-.976A12.658,12.658,0,0,1,3.541,36.7,12.156,12.156,0,0,1,.948,32.863,11.71,11.71,0,0,1,0,28.137V12.524A11.7,11.7,0,0,1,.948,7.8,12.714,12.714,0,0,1,3.541,3.937a11.57,11.57,0,0,1,3.82-2.593A11.947,11.947,0,0,1,12.072.41Z" transform="translate(0 0.162)" fill="#fff"/>
  <rect id="Rectangle_1" data-name="Rectangle 1" width="6.245" height="39.702" transform="translate(41.501 0.823)" fill="#fff"/>
  <path id="Tracé_3" data-name="Tracé 3" d="M76.4.53a12.546,12.546,0,0,1,4.572.822,12.1,12.1,0,0,1,3.708,2.258A10.944,10.944,0,0,1,87.2,6.971a9.354,9.354,0,0,1,.934,4.182V39.73H81.973V11.111A3.861,3.861,0,0,0,80.328,8a6.148,6.148,0,0,0-3.917-1.3H74.236A6.106,6.106,0,0,0,70.291,8a3.875,3.875,0,0,0-1.617,3.109H62.428A3.889,3.889,0,0,0,60.811,8a6.106,6.106,0,0,0-3.945-1.3H54.678A6.134,6.134,0,0,0,50.76,8a3.861,3.861,0,0,0-1.645,3.109V39.73H42.87V11.111a9.465,9.465,0,0,1,.92-4.182,10.553,10.553,0,0,1,2.523-3.36,12.17,12.17,0,0,1,3.708-2.217A12.755,12.755,0,0,1,54.678.53h2.175a12.379,12.379,0,0,1,4.809.92,12.226,12.226,0,0,1,3.861,2.523A11.7,11.7,0,0,1,69.4,1.45,12.546,12.546,0,0,1,74.236.53Z" transform="translate(16.892 0.209)" fill="#fff"/>
  <path id="Tracé_4" data-name="Tracé 4" d="M146.877.09V6.252H120.823a4.349,4.349,0,0,0-4.363,4.377v1.882a4.355,4.355,0,0,0,4.377,4.321h18.555a10.372,10.372,0,0,1,4.182.822,11,11,0,0,1,3.387,2.258,10.469,10.469,0,0,1,2.286,3.36,10.343,10.343,0,0,1,.822,4.112v1.854a10.427,10.427,0,0,1-3.109,7.458A10.929,10.929,0,0,1,143.49,39a10.316,10.316,0,0,1-4.182.822H113.379V33.658h26a4.182,4.182,0,0,0,3.123-1.3,4.294,4.294,0,0,0,1.241-3.081v-1.9a4.294,4.294,0,0,0-4.363-4.321H120.823a10.33,10.33,0,0,1-7.472-3.123,11,11,0,0,1-2.244-3.36,10.093,10.093,0,0,1-.836-4.071V10.643a10.315,10.315,0,0,1,.822-4.112A10.469,10.469,0,0,1,116.669.954a10.316,10.316,0,0,1,4.182-.822Z" transform="translate(43.45 0.036)" fill="#fff"/>
  <path id="Tracé_5" data-name="Tracé 5" d="M64.3,15.331a5.869,5.869,0,1,1-8.2,1.143,5.869,5.869,0,0,1,8.2-1.143" transform="translate(21.638 5.58)" fill="#ed6e00"/>
</svg>
