<svg xmlns="http://www.w3.org/2000/svg" viewBox="0 0 290.51 174.31">
  <defs>
    <style>
      .cls-1 {
        fill: #fff;
      }
    </style>
  </defs>
  <title>formation-picto-white</title>
  <g id="Calque_2" data-name="Calque 2">
    <g id="Calque_2-2" data-name="Calque 2">
      <path class="cls-1" d="M282.49,40.49,155.88,1.59a36.26,36.26,0,0,0-21.24,0L8,40.49C-2.67,43.77-2.67,57.9,8,61.19L30.09,68A35.81,35.81,0,0,0,22,89.26a14,14,0,0,0-1.16,24.06L9.23,165.47a7.26,7.26,0,0,0,7.08,8.84H41.78a7.26,7.26,0,0,0,7.09-8.84L37.28,113.32a14,14,0,0,0-.81-23.84,21.39,21.39,0,0,1,9.39-16.66l88.77,27.27a36.29,36.29,0,0,0,21.24,0l126.62-38.9c10.69-3.29,10.69-17.41,0-20.7ZM160.14,114a50.85,50.85,0,0,1-29.77,0L64.54,93.75,58.1,145.26c0,16,39,29.05,87.15,29.05s87.16-13,87.16-29.05L226,93.75Z"/>
    </g>
  </g>
</svg>
