<svg xmlns="http://www.w3.org/2000/svg" width="1262.035" height="345.138" viewBox="0 0 1262.035 345.138">
  <g id="Groupe_464" data-name="Groupe 464" transform="translate(-733.174 -2848)" style="isolation: isolate">
    <g id="Groupe_439" data-name="Groupe 439" transform="translate(1145.649 2962.021)" opacity="0.33" style="isolation: isolate">
      <g id="Groupe_431" data-name="Groupe 431" transform="translate(317.485 98.664)">
        <path id="Tracé_544" data-name="Tracé 544" d="M4.932,13.446C27.61,10,48.136,5.414,65.142,0A454.369,454.369,0,0,1,0,10.1Z" transform="translate(0)" fill="#f2cf00"/>
      </g>
      <g id="Groupe_432" data-name="Groupe 432" transform="translate(175.186 107.16)">
        <path id="Tracé_545" data-name="Tracé 545" d="M85.824,3.993A632.6,632.6,0,0,1,13.471,0L0,11.339a793.386,793.386,0,0,0,95.389-.732L91.127,3.973Q88.475,3.991,85.824,3.993Z" fill="#f2cf00"/>
      </g>
      <g id="Groupe_433" data-name="Groupe 433" transform="translate(42.138 85.514)">
        <path id="Tracé_546" data-name="Tracé 546" d="M104.568,14.876C85.7,10.868,69.418,5.773,57.073,0L0,9.765C20,17.31,46.554,23.488,77.272,27.753Z" transform="translate(0 0)" fill="#f2cf00"/>
      </g>
      <g id="Groupe_434" data-name="Groupe 434" transform="translate(0 52.304)">
        <path id="Tracé_547" data-name="Tracé 547" d="M75.036,2.781,2.055,0,.16,6.482C-.368,9.111.5,11.8,1.457,14.334,3.309,19.067,7.329,23.761,13.444,28.3l67.65-6.727a25.606,25.606,0,0,1-6.4-9.321,9.677,9.677,0,0,1-.414-5.617Z" transform="translate(0)" fill="#f2cf00"/>
      </g>
      <g id="Groupe_435" data-name="Groupe 435" transform="translate(17.564 13.578)">
        <path id="Tracé_548" data-name="Tracé 548" d="M102.872,12.574,61.435,0A285.408,285.408,0,0,0,25.871,10.248c-10.6,3.9-19.3,8.024-25.871,12.3l67.137,6.688a81.7,81.7,0,0,1,14.6-8.608A174.564,174.564,0,0,1,102.872,12.574Z" transform="translate(0 0)" fill="#f2cf00"/>
      </g>
      <g id="Groupe_436" data-name="Groupe 436" transform="translate(129.715 0)">
        <path id="Tracé_549" data-name="Tracé 549" d="M96.016.054A741.615,741.615,0,0,0,0,4.981l26.441,12.5A536.36,536.36,0,0,1,97.185,9.433Z" transform="translate(0 0)" fill="#f2cf00"/>
      </g>
      <g id="Groupe_437" data-name="Groupe 437" transform="translate(277.83 2.706)">
        <path id="Tracé_550" data-name="Tracé 550" d="M82.674,12.141C59.525,6.618,32.5,2.454,3.906,0L0,6.065a565.333,565.333,0,0,1,79.509,7.179Z" transform="translate(0)" fill="#f2cf00"/>
      </g>
      <g id="Groupe_438" data-name="Groupe 438" transform="translate(390.253 23.542)">
        <path id="Tracé_551" data-name="Tracé 551" d="M7.141,0c19.942,7.424,33.611,15.939,39.7,24.8l-.855.047C38.515,16.1,22.408,7.977,0,1.64Z" transform="translate(0)" fill="#f2cf00"/>
      </g>
    </g>
    <g id="Groupe_449" data-name="Groupe 449" transform="translate(976.041 2905.047)" opacity="0.33" style="isolation: isolate">
      <path id="Tracé_552" data-name="Tracé 552" d="M.007,91.28c.27-8.6,4.105-17.193,11.631-25.533C19.578,57.439,30.9,49.379,45.805,41.862A335.179,335.179,0,0,1,100.1,21.143,640.132,640.132,0,0,1,170.7,4.865L157.529,0C132.8,5.718,110.163,12.028,90.634,18.958,71.22,25.9,54.158,33.3,40.9,41.184,27.389,49.021,16.926,57.228,10.327,65.661,3.285,74.063-.178,82.675.007,91.28Z" transform="translate(0 24.232)" fill="#f2cf00"/>
      <g id="Groupe_440" data-name="Groupe 440" transform="translate(209.413 0)">
        <path id="Tracé_553" data-name="Tracé 553" d="M357.922,5.927,334.844,20.359c-24.873-3.287-48.564-5.7-72.069-7.339-29.363-2.08-59.354-3.214-89.131-3.369-31.1-.171-61.777.623-91.141,2.384-25.6,1.48-52.056,3.934-78.712,7.311L0,17.555c22.95-3.907,48.892-7.381,77.258-10.338,29.734-3.069,61.563-5.2,94.548-6.326A1505.023,1505.023,0,0,1,357.922,5.927Z" transform="translate(0 0)" fill="#f2cf00"/>
      </g>
      <g id="Groupe_441" data-name="Groupe 441" transform="translate(598.752 13.586)">
        <path id="Tracé_554" data-name="Tracé 554" d="M251.186,85.238,159.86,88.027C152.8,73.8,135.144,59.955,108.517,47.813,80.65,35.158,43.276,24.065,0,15.581L32.97,0C90.956,8.453,141.13,20.582,178.5,35.216,216.934,50.116,241.95,67.348,251.186,85.238Z" transform="translate(0)" fill="#f2cf00"/>
      </g>
      <g id="Groupe_442" data-name="Groupe 442" transform="translate(631.124 118.402)">
        <path id="Tracé_555" data-name="Tracé 555" d="M223.12,0c-.9,8.538-5.131,17.112-12.6,25.521-8.766,9.348-21.481,18.323-37.745,26.647-17.362,8.682-37.588,16.481-60.053,23.153A704.159,704.159,0,0,1,42.877,92.078L0,76.237A518.969,518.969,0,0,0,51.315,61.1c18.074-6.544,32.728-13.189,43.6-19.753,11.987-7,21-14.287,26.7-21.634,5.3-6.3,8.324-12.924,8.951-19.706Z" transform="translate(0 0)" fill="#f2cf00"/>
      </g>
      <g id="Groupe_443" data-name="Groupe 443" transform="translate(249.754 205.03)">
        <path id="Tracé_556" data-name="Tracé 556" d="M363.153,15.086c-28.637,3.7-57.145,6.419-84.9,8.1-32.057,2.01-65.441,3-99.351,2.871-32.485-.086-65.256-1.235-97.413-3.42C54.821,20.855,28.081,18.194,0,14.529l5.359-3.358C30.618,13.454,57.715,15,86.067,15.783c30.689.822,61.221.666,90.813-.448,30.218-1.126,59.268-3.167,86.308-6.061C288.7,6.509,311.068,3.463,331.2,0Z" transform="translate(0 0)" fill="#f2cf00"/>
      </g>
      <path id="Tracé_557" data-name="Tracé 557" d="M206.913,79.933C152.234,72.595,103.428,61.392,67.522,47.455,31.387,33.592,7.8,17.084.627,0L0,.019C3.478,8.573,10.22,17.037,20.2,25.233,30.475,33.4,43.746,41.32,60.266,48.756,93.379,63.6,138.507,76.685,192.9,86.555Z" transform="translate(2.217 127.925)" fill="#f2cf00"/>
    </g>
    <path id="Tracé_558" data-name="Tracé 558" d="M1262.034,172.606c.1,21.688-15.167,43.361-44.544,63.562-29.392,20.208-73.081,38.909-128.173,54.864-109.671,32.046-267.878,52.2-433.369,53.976-82.5.869-166.517-2.606-245.242-10.622-78.526-8.079-151.949-20.4-213.684-36.369-61.635-15.978-111.539-35.493-145.378-57C17.661,219.512.328,196.04,0,172.606c.314-23.43,17.533-46.918,51.53-68.423C85.268,82.658,135.2,63.132,196.85,47.15c61.664-16.005,135.215-28.31,213.755-36.393C489.331,2.713,573.43-.738,655.948.131,821.5,1.922,979.731,22.1,1089.373,54.165c55.092,15.959,98.767,34.667,128.13,54.876S1262.134,150.918,1262.034,172.606Zm0,0c-.371-21.681-16.336-43.346-47.809-63.192-31.288-19.858-77.514-37.869-134.573-52.593C1022.536,42.1,954.558,30.794,882.1,23.4c-72.668-7.327-150.053-10.439-226.156-9.571-152.548,1.819-297.412,20.477-398.033,50C156.369,93.191,99.395,132.723,99.737,172.606c-.385,39.875,56.418,79.439,158.007,108.816,100.606,29.553,245.6,48.215,398.2,50.026,76.131.857,153.56-2.251,226.213-9.6,72.468-7.4,140.461-18.7,197.548-33.44,57.059-14.732,103.271-32.751,134.531-52.609C1245.713,215.952,1261.649,194.287,1262.034,172.606Z" transform="translate(733.174 2848)" fill="#f2cf00" opacity="0.33"/>
  </g>
</svg>
