<svg xmlns="http://www.w3.org/2000/svg" viewBox="0 0 307.16 377.75">
  <defs>
    <style>
      .cls-1 {
        fill: #fff;
      }
    </style>
  </defs>
  <title>webcam-picto-white</title>
  <g id="Calque_2" data-name="Calque 2">
    <g id="Calque_2-2" data-name="Calque 2">
      <path id="Tracé_1" data-name="Tracé 1" class="cls-1" d="M154.06,94.84a59.55,59.55,0,1,0,59.87,59.55,59.53,59.53,0,0,0-59.87-59.55Zm-.48,88a28.44,28.44,0,1,1,28.59-28.43,28.43,28.43,0,0,1-28.59,28.43h0Z"/>
      <path id="Tracé_2" data-name="Tracé 2" class="cls-1" d="M265.47,353.38H256.1c-6.89-20.2-77.8-41-77.8-41v-7.24a153.55,153.55,0,1,0-45.06.65v6.33C92.12,316.39,60,332.78,53,353.39H46.06a11.76,11.76,0,0,0-11.75,11.7v1a11.75,11.75,0,0,0,11.75,11.69h219.4a11.74,11.74,0,0,0,11.75-11.69v-1A11.75,11.75,0,0,0,265.47,353.38ZM154.06,17.27a14.86,14.86,0,1,1-14.93,14.86,14.86,14.86,0,0,1,14.93-14.86ZM68.61,152.94a85.45,85.45,0,1,1,85.9,85h-.45a85.22,85.22,0,0,1-85.45-85Z"/>
    </g>
  </g>
</svg>
